HIERARCHY
ROOT Hips
{
  OFFSET 4.03046 97.0102 -2.29783
  CHANNELS 6 Xposition Yposition Zposition Zrotation Xrotation Yrotation
  JOINT Spine
  {
    OFFSET 0 11.0026 -2.28207
    CHANNELS 6 Xposition Yposition Zposition Zrotation Xrotation Yrotation
    JOINT Spine1
    {
      OFFSET 0 10.9693 0
      CHANNELS 6 Xposition Yposition Zposition Zrotation Xrotation Yrotation
      JOINT Spine2
      {
        OFFSET 0 10.9693 0
        CHANNELS 6 Xposition Yposition Zposition Zrotation Xrotation Yrotation
        JOINT Spine3
        {
          OFFSET 0 10.9693 0
          CHANNELS 6 Xposition Yposition Zposition Zrotation Xrotation Yrotation
          JOINT Neck
          {
            OFFSET 0 14.1034 1.41034
            CHANNELS 6 Xposition Yposition Zposition Zrotation Xrotation Yrotation
            JOINT Neck1
            {
              OFFSET 0 4.78292 0
              CHANNELS 6 Xposition Yposition Zposition Zrotation Xrotation Yrotation
              JOINT Head
              {
                OFFSET 0 4.78292 0
                CHANNELS 6 Xposition Yposition Zposition Zrotation Xrotation Yrotation
                End Site
                {
                  OFFSET 0 9.72808 0
                }
              }
            }
          }
          JOINT RightShoulder
          {
            OFFSET 0 10.0739 5.27092
            CHANNELS 6 Xposition Yposition Zposition Zrotation Xrotation Yrotation
            JOINT RightArm
            {
              OFFSET 0 20.7223 0
              CHANNELS 6 Xposition Yposition Zposition Zrotation Xrotation Yrotation
              JOINT RightForeArm
              {
                OFFSET 0 28.842 0
                CHANNELS 6 Xposition Yposition Zposition Zrotation Xrotation Yrotation
                JOINT RightHand
                {
                  OFFSET 0 25.0424 0
                  CHANNELS 6 Xposition Yposition Zposition Zrotation Xrotation Yrotation
                  JOINT RightHandThumb1
                  {
                    OFFSET -3.04472 3.62624 2.69644
                    CHANNELS 6 Xposition Yposition Zposition Zrotation Xrotation Yrotation
                    End Site
                    {
                      OFFSET 0 0 0
                    }
                  }
                  JOINT RightHandMiddle1
                  {
                    OFFSET 0 9.66998 -0.061987
                    CHANNELS 6 Xposition Yposition Zposition Zrotation Xrotation Yrotation
                    End Site
                    {
                      OFFSET 0 0 0
                    }
                  }
                }
              }
            }
          }
          JOINT LeftShoulder
          {
            OFFSET 0 10.0739 5.27092
            CHANNELS 6 Xposition Yposition Zposition Zrotation Xrotation Yrotation
            JOINT LeftArm
            {
              OFFSET 0 20.7223 0
              CHANNELS 6 Xposition Yposition Zposition Zrotation Xrotation Yrotation
              JOINT LeftForeArm
              {
                OFFSET 0 28.842 0
                CHANNELS 6 Xposition Yposition Zposition Zrotation Xrotation Yrotation
                JOINT LeftHand
                {
                  OFFSET 0 25.0424 0
                  CHANNELS 6 Xposition Yposition Zposition Zrotation Xrotation Yrotation
                  JOINT LeftHandThumb1
                  {
                    OFFSET 3.04472 3.62624 2.69644
                    CHANNELS 6 Xposition Yposition Zposition Zrotation Xrotation Yrotation
                    End Site
                    {
                      OFFSET 0 0 0
                    }
                  }
                  JOINT LeftHandMiddle1
                  {
                    OFFSET 0 9.66998 -0.061987
                    CHANNELS 6 Xposition Yposition Zposition Zrotation Xrotation Yrotation
                    End Site
                    {
                      OFFSET 0 0 0
                    }
                  }
                }
              }
            }
          }
        }
      }
    }
  }
  JOINT RightUpLeg
  {
    OFFSET -10.3008 0 0
    CHANNELS 6 Xposition Yposition Zposition Zrotation Xrotation Yrotation
    JOINT RightLeg
    {
      OFFSET 0 -44.9556 0
      CHANNELS 6 Xposition Yposition Zposition Zrotation Xrotation Yrotation
      JOINT RightFoot
      {
        OFFSET 0 -44.3497 0
        CHANNELS 6 Xposition Yposition Zposition Zrotation Xrotation Yrotation
        JOINT RightForeFoot
        {
          OFFSET 0 -4.35574 0
          CHANNELS 6 Xposition Yposition Zposition Zrotation Xrotation Yrotation
          JOINT RightToeBase
          {
            OFFSET 0 0 17.0584
            CHANNELS 6 Xposition Yposition Zposition Zrotation Xrotation Yrotation
            End Site
            {
              OFFSET 0 0 6.41607
            }
          }
        }
      }
    }
  }
  JOINT LeftUpLeg
  {
    OFFSET 10.3008 0 0
    CHANNELS 6 Xposition Yposition Zposition Zrotation Xrotation Yrotation
    JOINT LeftLeg
    {
      OFFSET 0 -44.9556 0
      CHANNELS 6 Xposition Yposition Zposition Zrotation Xrotation Yrotation
      JOINT LeftFoot
      {
        OFFSET 0 -44.3497 0
        CHANNELS 6 Xposition Yposition Zposition Zrotation Xrotation Yrotation
        JOINT LeftForeFoot
        {
          OFFSET 0 -4.35574 0
          CHANNELS 6 Xposition Yposition Zposition Zrotation Xrotation Yrotation
          JOINT LeftToeBase
          {
            OFFSET 0 0 17.0584
            CHANNELS 6 Xposition Yposition Zposition Zrotation Xrotation Yrotation
            End Site
            {
              OFFSET 0 0 7.80259
            }
          }
        }
      }
    }
  }
}
MOTION
Frames:	4
Frame Time:	0.00833333
4.36232 96.9651 -1.9738 0.756344 -13.7264 -2.40689 0 11.0026 -2.28207 -1.53677 6.92983 -0.338054 0 10.9693 -8.88178e-016 -0.297134 5.41126 0.169014 -8.88178e-016 10.9693 8.88178e-016 -1.07767 4.83869 2.12149 0 10.9693 0 0.675514 2.83598 0.038922 4.44089e-016 14.1034 1.41034 6.61296 5.14132 -1.45545 0 4.78292 7.10543e-015 -2.1696 -0.675258 -4.07141 1.77636e-015 4.78292 0 -1.21066 -13.1283 -0.422379 -4.44089e-016 10.0739 5.27092 84.5711 -25.4338 -2.33723 0 20.7223 0 -11.1539 83.0144 42.7038 2.84217e-014 28.842 0 180 55.9487 -92.8627 0 25.0424 2.84217e-014 -7.33681 -14.5647 -1.6685e-006 -3.04472 3.62624 2.69644 -6.41993e-015 45.2637 9.03765e-015 0 9.66998 -0.061987 -0 -9.93923e-016 -0 -4.44089e-016 10.0739 5.27092 -95.2911 -15.9134 -1.45457 0 20.7223 -3.55271e-015 -68.4697 4.1849 32.3748 0 28.842 0 -5.87853e-008 33.471 17.8763 0 25.0424 0 -2.20477 -7.99882 2.04907e-008 3.04472 3.62624 2.69644 8.0102e-015 45.2637 -9.03765e-015 -7.10543e-015 9.66998 -0.061987 0 0 -0 -10.3008 -1.42109e-014 0 -7.51274 16.2113 -4.4978 3.55271e-015 -44.9556 0 -1.45841e-015 5.97008 1.59895e-015 3.55271e-015 -44.3497 0 -0.031295 -8.87566 7.31243 3.55271e-015 -4.35574 1.77636e-015 -5.19383e-016 -9.31803e-018 3.97569e-016 0 -4.44089e-016 17.0584 -4.65745e-016 -15.2765 2.06066e-016 10.3008 -2.84217e-014 -7.10543e-015 -1.0514 20.8331 8.64506 0 -44.9556 1.77636e-015 9.86352e-017 0.0545536 7.95139e-016 0 -44.3497 0 2.77733 -7.08868 3.31427 3.55271e-015 -4.35574 0 -2.60905e-016 -4.96962e-017 -1.59028e-015 0 -4.44089e-016 17.0584 -5.07408e-016 -9.24767 -1.61122e-015 
4.36006 96.9645 -1.97074 0.758246 -13.7259 -2.40285 8.88178e-016 11.0026 -2.28207 -1.53668 6.92941 -0.338077 -4.44089e-016 10.9693 0 -0.29704 5.4121 0.168986 4.44089e-016 10.9693 -1.77636e-015 -1.07792 4.83758 2.12247 -6.66134e-016 10.9693 0 0.675347 2.83423 0.0390535 -4.44089e-016 14.1034 1.41034 6.60622 5.14321 -1.45075 3.55271e-015 4.78292 0 -2.16398 -0.676729 -4.07154 1.77636e-015 4.78292 -7.10543e-015 -1.21175 -13.1287 -0.42215 4.44089e-016 10.0739 5.27092 84.5681 -25.432 -2.33836 -2.84217e-014 20.7223 3.55271e-015 -11.1173 83.0227 42.6585 0 28.842 0 180 55.9658 -92.8986 7.10543e-015 25.0424 0 -7.31734 -14.567 -1.25139e-006 -3.04472 3.62624 2.69644 -3.18055e-015 45.2637 -0 7.10543e-015 9.66998 -0.061987 -1.59028e-015 -2.78299e-015 -0 4.44089e-016 10.0739 5.27092 -95.2861 -15.9129 -1.45313 0 20.7223 3.55271e-015 -68.4715 4.18465 32.3797 -7.10543e-015 28.842 0 -1.91573e-007 33.4704 17.8705 7.10543e-015 25.0424 -4.44089e-015 -2.20548 -7.99963 1.5368e-008 3.04472 3.62624 2.69644 3.20996e-015 45.2637 -4.51883e-015 0 9.66998 -0.061987 0 0 -3.18055e-015 -10.3008 0 0 -7.51219 16.213 -4.4976 3.55271e-015 -44.9556 -8.88178e-016 -3.32657e-016 5.9709 3.1979e-015 -3.55271e-015 -44.3497 0 -0.0351698 -8.88021 7.30791 0 -4.35574 0 -1.19004e-015 2.48481e-017 -1.98785e-016 0 -4.44089e-016 17.0584 -5.04606e-016 -15.2768 -4.12132e-016 10.3008 0 0 -1.05071 20.8337 8.64289 0 -44.9556 0 0 0.0548846 -0 0 -44.3497 0 2.77816 -7.0895 3.3131 3.55271e-015 -4.35574 0 -4.84538e-016 -9.93923e-017 -1.59028e-015 3.55271e-015 0 17.0584 5.16475e-017 -9.24861 -1.61122e-015 
4.35877 96.9639 -1.96817 0.760149 -13.7254 -2.39881 -8.88178e-016 11.0026 -2.28207 -1.53659 6.92899 -0.338099 -1.33227e-015 10.9693 -3.55271e-015 -0.296947 5.41294 0.168958 4.44089e-016 10.9693 0 -1.07817 4.83647 2.12344 2.22045e-016 10.9693 0 0.67518 2.83249 0.0391849 4.44089e-016 14.1034 1.41034 6.59948 5.1451 -1.44605 3.55271e-015 4.78292 0 -2.15837 -0.6782 -4.07166 0 4.78292 0 -1.21284 -13.1291 -0.421921 0 10.0739 5.27092 84.5652 -25.4302 -2.33948 0 20.7223 0 -11.0805 83.0309 42.6131 -2.84217e-014 28.842 0 -180 55.9829 -92.9345 -7.10543e-015 25.0424 -2.84217e-014 -7.29786 -14.5694 1.64311e-015 -3.04472 3.62624 2.69644 8.0102e-015 45.2637 -9.03765e-015 0 9.66998 -0.061987 -1.59028e-015 2.38542e-015 -3.18055e-015 0 10.0739 5.27092 -95.281 -15.9124 -1.45168 -2.84217e-014 20.7223 0 -68.4733 4.18441 32.3845 -7.10543e-015 28.842 0 -3.96028e-007 33.4698 17.8647 -7.10543e-015 25.0424 3.55271e-015 -2.2062 -8.00044 -0 3.04472 3.62624 2.69644 4.80024e-015 45.2637 -4.51883e-015 0 9.66998 -0.061987 -1.59028e-015 0 -3.18055e-015 -10.3008 1.42109e-014 0 -7.51164 16.2148 -4.49741 0 -44.9556 0 1.72632e-017 5.97173 -1.59895e-015 0 -44.3497 1.77636e-015 -0.039045 -8.88476 7.30339 1.77636e-015 -4.35574 0 -5.44886e-016 4.73667e-017 -0 1.77636e-015 0 17.0584 -4.35226e-016 -15.2772 4.12133e-016 10.3008 0 3.55271e-015 -1.05003 20.8343 8.64072 0 -44.9556 1.77636e-015 9.93923e-017 0.0552156 -0 0 -44.3497 0 2.77899 -7.09032 3.31194 -3.55271e-015 -4.35574 0 1.73937e-016 -9.93923e-017 -1.59028e-015 0 4.44089e-016 17.0584 -1.12674e-015 -9.24955 -3.22245e-015 
4.3553 96.9645 -1.96491 0.756627 -13.7216 -2.39545 8.88178e-016 11.0026 -2.28207 -1.53179 6.92738 -0.339822 -4.44089e-016 10.9693 -8.88178e-016 -0.297504 5.41227 0.169175 8.88178e-016 10.9693 -1.77636e-015 -1.07842 4.83632 2.12417 4.44089e-016 10.9693 0 0.675198 2.83127 0.0393119 0 14.1034 1.41034 6.59916 5.14281 -1.44751 -3.55271e-015 4.78292 0 -2.15945 -0.676642 -4.07557 1.77636e-015 4.78292 7.10543e-015 -1.21316 -13.1281 -0.422271 -4.44089e-016 10.0739 5.27092 84.5638 -25.4275 -2.33985 2.84217e-014 20.7223 -3.55271e-015 -11.0531 83.0375 42.5823 2.84217e-014 28.842 0 -180 55.9831 -92.9961 0 25.0424 0 -7.29566 -14.5748 -3.18129e-007 -3.04472 3.62624 2.69644 1.64909e-015 45.2637 -9.03765e-015 0 9.66998 -0.061987 -1.10348e-032 -3.97569e-016 -1.59028e-015 -4.44089e-016 10.0739 5.27092 -95.2764 -15.9122 -1.45039 -2.84217e-014 20.7223 -3.55271e-015 -68.4728 4.18565 32.3877 -7.10543e-015 28.842 0 -7.1377e-007 33.4669 17.8683 1.42109e-014 25.0424 8.88178e-016 -2.20532 -7.99657 9.06803e-008 3.04472 3.62624 2.69644 -1.12202e-014 45.2637 1.35565e-014 0 9.66998 -0.061987 -1.59028e-015 0 9.54166e-015 -10.3008 0 -3.55271e-015 -7.50461 16.2116 -4.4986 3.55271e-015 -44.9556 0 2.03754e-015 5.97511 -0 -3.55271e-015 -44.3497 0 -0.0405648 -8.88599 7.29922 0 -4.35574 0 -1.92427e-017 -3.72721e-017 1.98785e-016 0 8.88178e-016 17.0584 8.83832e-016 -15.2738 4.12126e-016 10.3008 0 -3.55271e-015 -1.04313 20.8315 8.64002 0 -44.9556 0 0 0.054827 -0 0 -44.3497 0 2.77605 -7.09342 3.30919 -3.55271e-015 -4.35574 0 -1.46604e-015 -9.93923e-017 -1.59028e-015 0 0 17.0584 -8.92565e-016 -9.24811 -1.61122e-015 
